<svg width="278" height="44" viewBox="0 0 278 44" fill="none" xmlns="http://www.w3.org/2000/svg">
<path d="M42.6235 26.3899C42.8733 24.8082 43.0398 23.393 43.0398 21.9777C43.0398 15.734 41.0418 10.5726 37.0458 6.32692C33.1331 2.08122 28.0549 0 21.9778 0C15.5676 0 10.2396 2.08122 6.16043 6.32692C2.08123 10.4894 0 15.734 0 21.9777C0 28.3046 2.08123 33.5493 6.24368 37.7118C10.4061 41.8742 15.9006 43.9555 22.8102 43.9555C30.8022 43.9555 36.8793 40.9585 40.9585 35.0478L32.3006 30.0529C30.2194 32.8001 27.056 34.2153 22.9767 34.2153C16.5666 34.2153 12.6539 31.6346 11.2386 26.3899H42.6235ZM11.0721 18.065C12.3209 12.7371 16.2336 9.65688 21.9778 9.65688C26.8895 9.65688 31.0519 12.4041 32.3006 18.065H11.0721Z" fill="#458FF6"/>
<path d="M73.68 0C68.0191 0 63.8566 1.91472 61.2759 5.82743V1.16549H50.5367V42.79H61.2759V20.3127C61.2759 13.4031 64.8556 9.98987 70.4333 9.98987C75.4282 9.98987 78.6749 12.9868 78.6749 18.5645V42.79H89.4141V17.2325C89.4141 11.8214 87.9156 7.6589 84.9186 4.57869C82.0049 1.49848 78.2587 0 73.68 0Z" fill="#458FF6"/>
<path d="M115.085 30.3026L105.012 1.16549H93.1902L109.008 42.79H121.245L137.062 1.16549H125.241L115.085 30.3026Z" fill="#458FF6"/>
<path d="M152.98 42.79V1.16549H142.241V42.79H152.98Z" fill="#458FF6"/>
<path d="M172.391 12.9868C172.391 10.9056 174.472 9.57363 177.219 9.57363C180.299 9.57363 182.547 10.9889 183.879 13.8193L193.036 8.82439C189.79 3.16346 183.962 0 177.219 0C172.724 0 168.977 1.16548 165.897 3.5797C162.9 5.91067 161.402 9.15738 161.402 13.2366C161.402 21.8945 169.144 24.4752 175.304 26.0569C179.55 27.1392 182.88 28.3879 182.88 30.6356C182.88 33.0498 180.965 34.2153 177.136 34.2153C172.89 34.2153 170.226 32.3839 168.977 28.8041L159.654 34.0488C162.734 40.6255 168.561 43.9555 177.136 43.9555C181.881 43.9555 185.877 42.79 189.04 40.5422C192.287 38.2113 193.869 34.8813 193.869 30.6356C193.952 21.728 186.043 18.8143 179.966 17.5655C175.721 16.4833 172.391 15.2346 172.391 12.9868Z" fill="#458FF6"/>
<path d="M211.514 42.79V1.16549H200.775V42.79H211.514Z" fill="#458FF6"/>
<path d="M256.808 37.6285C261.053 33.3828 263.218 28.1381 263.218 21.9777C263.218 15.8173 261.053 10.6559 256.808 6.41017C252.562 2.16447 247.317 0 241.157 0C234.997 0 229.752 2.16447 225.506 6.41017C221.26 10.6559 219.179 15.8173 219.179 21.9777C219.179 28.1381 221.26 33.3828 225.506 37.6285C229.752 41.8742 234.997 43.9555 241.157 43.9555C247.317 43.9555 252.562 41.8742 256.808 37.6285ZM233.082 30.2194C231.001 28.0549 229.918 25.3077 229.918 21.9777C229.918 18.6478 231.001 15.9006 233.082 13.7361C235.246 11.5716 237.91 10.4894 241.157 10.4894C244.404 10.4894 247.068 11.5716 249.232 13.7361C251.397 15.9006 252.479 18.6478 252.479 21.9777C252.479 25.3077 251.397 28.0549 249.232 30.2194C247.068 32.3839 244.404 33.4661 241.157 33.4661C237.91 33.4661 235.246 32.3839 233.082 30.2194Z" fill="#458FF6"/>
<path d="M278 35.8501C278 39.6816 274.894 42.7876 271.062 42.7876C267.231 42.7876 264.125 39.6816 264.125 35.8501C264.125 32.0187 267.231 28.9127 271.062 28.9127C274.894 28.9127 278 32.0187 278 35.8501Z" fill="#EC6DBC"/>
</svg>
